<svg t="1699544506239" class="icon" viewBox="0 0 1024 1024" version="1.1" xmlns="http://www.w3.org/2000/svg" p-id="19054" width="200" height="200"><path d="M849.28 136.512c48.192 0 87.36 39.232 87.36 87.552v456.832c0 48.384-39.168 87.552-87.424 87.552h-307.2v61.568h247.168v60.16H234.816v-60.16h247.168v-61.568h-307.2a87.488 87.488 0 0 1-87.424-87.552V224.064c0-48.32 39.168-87.552 87.424-87.552h674.432z m0 60.16H174.72a27.328 27.328 0 0 0-27.264 27.392v456.832c0 15.104 12.224 27.392 27.328 27.392h674.432a27.328 27.328 0 0 0 27.328-27.392V224.064a27.328 27.328 0 0 0-27.328-27.328zM716.8 349.568l42.496 42.56-113.408 113.6a95.424 95.424 0 0 1-135.168 0l-52.736-52.8a35.456 35.456 0 0 0-50.176 0L304.64 556.224l-42.496-42.56 103.168-103.36a95.424 95.424 0 0 1 135.168 0l52.736 52.8a35.456 35.456 0 0 0 50.176 0L716.8 349.504z" p-id="19055"></path></svg>