<?xml version="1.0" standalone="no"?><!DOCTYPE svg PUBLIC "-//W3C//DTD SVG 1.1//EN" "http://www.w3.org/Graphics/SVG/1.1/DTD/svg11.dtd"><svg t="1698933252755" class="icon" viewBox="0 0 1024 1024" version="1.1" xmlns="http://www.w3.org/2000/svg" p-id="24952" xmlns:xlink="http://www.w3.org/1999/xlink" width="200" height="200"><path d="M1014.749 847.166c0 92.17-75.413 167.583-167.583 167.583H176.834c-92.17 0-167.583-75.413-167.583-167.583V176.834c0-92.17 75.413-167.583 167.583-167.583h670.332c92.17 0 167.583 75.413 167.583 167.583z" fill="#2B2E3A" p-id="24953"></path><path d="M402.008 286.76c-104.02-18.944-186.268 0.884-219.048 57.66-24.46 42.368-17.468 98.54 16.96 158.584a10.668 10.668 0 1 0 18.504-10.612c-31.008-54.088-37.044-102.564-16.988-137.304 27.232-47.164 100.592-64.852 196.748-47.34a10.668 10.668 0 0 0 3.824-20.988zM254.012 575.988c42.06 46.22 96.704 89.576 159.024 125.552 150.892 87.12 311.532 110.404 390.7 56.424a10.668 10.668 0 1 0-12.02-17.624c-70.856 48.312-223.448 26.192-368.012-57.272-60.456-34.904-113.372-76.888-153.912-121.44a10.668 10.668 0 1 0-15.78 14.36z" fill="#9FEAF9" p-id="24954"></path><path d="M778.48 563.012c68.112-80.464 91.892-161.392 59.18-218.048-24.068-41.692-74.952-63.704-142.58-64.584a10.668 10.668 0 0 0-0.276 21.332c60.82 0.792 104.66 19.756 124.384 53.92 27.168 47.06 5.96 119.228-56.992 193.596a10.668 10.668 0 1 0 16.284 13.784z m-175.044-272.7c-61.584 13.196-127.136 38.996-190.088 75.34-155.768 89.932-257.38 222.544-243.268 318.7a10.668 10.668 0 1 0 21.108-3.1c-12.532-85.376 83.788-211.076 232.828-297.124 61.068-35.26 124.54-60.24 183.888-72.956a10.668 10.668 0 1 0-4.468-20.86z" fill="#9FEAF9" p-id="24955"></path><path d="M351.08 751.012c35.616 99.44 93.876 160.668 159.388 160.668 47.78 0 91.984-32.572 126.456-89.912a10.668 10.668 0 1 0-18.284-10.992c-30.98 51.532-69.032 79.568-108.172 79.568-54.42 0-106.384-54.608-139.3-146.52a10.668 10.668 0 1 0-20.084 7.188z m325.288-19.452c18.44-58.912 28.34-126.872 28.34-197.692 0-176.716-61.852-329.052-149.948-368.168a10.668 10.668 0 0 0-8.656 19.496c78.572 34.892 137.268 179.464 137.268 348.672 0 68.708-9.588 134.52-27.36 191.32a10.668 10.668 0 1 0 20.36 6.372z m200.896-10.448c0-28.196-22.856-51.052-51.052-51.052-28.196 0-51.052 22.856-51.052 51.052 0 28.196 22.856 51.052 51.052 51.052 28.196 0 51.052-22.856 51.052-51.052z m-21.332 0a29.72 29.72 0 1 1-59.44 0 29.72 29.72 0 0 1 59.44 0z m-661.944 51.052c28.2 0 51.056-22.856 51.056-51.052 0-28.196-22.86-51.052-51.056-51.052-28.192 0-51.052 22.856-51.052 51.052 0 28.196 22.86 51.052 51.052 51.052z m0-21.332a29.72 29.72 0 1 1 0-59.44 29.72 29.72 0 0 1 0 59.44z" fill="#9FEAF9" p-id="24956"></path><path d="M510.468 217.776c28.196 0 51.052-22.856 51.052-51.052 0-28.196-22.856-51.052-51.052-51.052-28.196 0-51.052 22.856-51.052 51.052 0 28.196 22.856 51.052 51.052 51.052z m0-21.332a29.72 29.72 0 1 1 0-59.44 29.72 29.72 0 0 1 0 59.44z m7.796 373.528c-19.94 4.308-39.584-8.364-43.9-28.304a36.944 36.944 0 0 1 28.304-43.904c19.94-4.308 39.584 8.364 43.904 28.304 4.308 19.94-8.364 39.588-28.308 43.904z" fill="#9FEAF9" p-id="24957"></path></svg>