<?xml version="1.0" standalone="no"?><!DOCTYPE svg PUBLIC "-//W3C//DTD SVG 1.1//EN" "http://www.w3.org/Graphics/SVG/1.1/DTD/svg11.dtd"><svg t="1699101898417" class="icon" viewBox="0 0 1024 1024" version="1.1" xmlns="http://www.w3.org/2000/svg" p-id="5695" xmlns:xlink="http://www.w3.org/1999/xlink" width="200" height="200"><path d="M0 512a512 512 0 1 0 1024 0A512 512 0 1 0 0 512z" fill="#FFFFFF" p-id="5696"></path><path d="M708.608 280.78l-3.584 34.475c-0.922 9.319-2.458 22.733-4.335 41.37-12.288 101.205-97.963 178.108-201.216 180.565l-7.919 0.342c-83.968 5.768-152.473 69.905-162.133 153.19l-8.124 74.513h-27.955l7.953-75.64c11.64-101.717 97.553-179.336 201.216-181.862l7.85-0.341c83.627-5.598 152.03-69.222 162.032-152.098l7.918-74.513h28.331z m-392.397 0l-31.334 296.073-1.366 2.048c10.582-14.745 21.914-28.945 33.997-42.462l27-255.658h28.33l-24.166 227.328c-1.707 1.502 30.583-20.31 30.583-20.31l21.88-207.018h28.501l-20.582 192.102c32.222-10.41 65.536-17.203 99.328-20.31l6.28-0.34c52.224-4.096 94.789-44.032 101.103-95.983l7.92-75.47h28.33l-7.953 75.845c-8.329 69.734-67.413 122.812-138.547 124.45l-8.295 0.342c-115.917 6.621-210.944 94.651-224.256 209.305l-7.919 74.513h-28.33l51.37-484.454h28.126z m449.024 0l-8.09 76.016-43.417 408.473h-28.126l31.335-296.448-32.666 41.165-26.965 255.317h-28.331l24.166-227.737-30.583 20.685-21.914 207.018h-28.33l23.04-193.4a257.604 257.604 0 0 1-101.718 22.358l-6.314 0.342c-52.259 4.198-94.789 44.202-101.103 96.187l-7.92 74.513h-28.33l7.953-74.513c7.885-70.144 67.072-123.699 138.547-125.406l8.295-0.34c115.712-6.555 210.67-94.277 224.256-208.726l3.208-29.833 2.048-21.23 2.663-24.406h28.33z" fill="#1890FF" p-id="5697"></path></svg>