<?xml version="1.0" standalone="no"?><!DOCTYPE svg PUBLIC "-//W3C//DTD SVG 1.1//EN" "http://www.w3.org/Graphics/SVG/1.1/DTD/svg11.dtd"><svg class="icon" width="200px" height="200.00px" viewBox="0 0 1024 1024" version="1.1" xmlns="http://www.w3.org/2000/svg"><path d="M923.8 483.8l-385-385c-15.2-15.2-39.8-15.2-55 0l-385 385c-13.5 13.5-15 34.5-4.5 49.6 2.4 3.5 6.5 5.4 10.7 5.4h85.1c14.6 0 26.5 11.9 26.5 26.5v344.4c0 14.6 11.9 26.5 26.5 26.5h159c14.6 0 26.5-11.9 26.5-26.5V565.3c0-14.6 11.9-26.5 26.5-26.5h112.6c14.6 0 26.5 11.9 26.5 26.5v344.4c0 14.6 11.9 26.5 26.5 26.5h159c14.6 0 26.5-11.9 26.5-26.5V565.3c0-14.6 11.9-26.5 26.5-26.5h85.1c4.2 0 8.3-1.9 10.7-5.4 10.3-15.2 8.8-36.1-4.7-49.6z" fill="#CBCBCB" /><path d="M779.6 959.4h-159c-27.4 0-49.7-22.3-49.7-49.7V565.3c0-1.8-1.5-3.3-3.3-3.3H455c-1.8 0-3.3 1.5-3.3 3.3v344.4c0 27.4-22.3 49.7-49.7 49.7H243c-27.4 0-49.7-22.3-49.7-49.7V565.3c0-1.8-1.5-3.3-3.3-3.3h-85c-12 0-23.1-5.8-29.8-15.4-17.1-24.7-14.1-58 7.2-79.2l385-385c24.2-24.2 63.6-24.2 87.8 0l385 385c21.2 21.2 24.2 54.5 7.2 79.2-6.7 9.6-17.8 15.4-29.8 15.4h-85.1c-1.8 0-3.3 1.5-3.3 3.3v344.4c0.1 27.4-22.2 49.7-49.6 49.7zM455 515.6h112.6c27.4 0 49.7 22.3 49.7 49.7v344.4c0 1.8 1.5 3.3 3.3 3.3h159c1.8 0 3.3-1.5 3.3-3.3V565.3c0-27.4 22.3-49.7 49.7-49.7h78.9c1.5-5.4 0.1-11.3-4-15.4l-385-385c-6.1-6.1-16.1-6.1-22.2 0l-385 385c-4.1 4.1-5.5 10.1-4 15.4h78.9c27.4 0 49.7 22.3 49.7 49.7v344.4c0 1.8 1.5 3.3 3.3 3.3h159c1.8 0 3.3-1.5 3.3-3.3V565.3c-0.1-27.4 22.1-49.7 49.5-49.7z" fill="#7D7D7D" /></svg>