<svg xmlns="http://www.w3.org/2000/svg" xmlns:xlink="http://www.w3.org/1999/xlink" version="1.1" width="16" height="16" viewBox="0 0 16 16"><defs><clipPath id="master_svg0_0_18447"><rect x="0" y="0" width="16" height="16" rx="0"/></clipPath></defs><g clip-path="url(#master_svg0_0_18447)"><g><path d="M12.940056984558105,11.666663969116211C12.940056984558105,11.666663969116211,13.559666984558106,11.42038396911621,13.559666984558106,11.42038396911621C13.559666984558106,11.42038396911621,13.555136984558105,11.409523969116211,13.555136984558105,11.409523969116211C13.555136984558105,11.409523969116211,12.940056984558105,11.666663969116211,12.940056984558105,11.666663969116211C12.940056984558105,11.666663969116211,12.940056984558105,11.666663969116211,12.940056984558105,11.666663969116211ZM11.546516984558105,8.333333969116211C11.546516984558105,8.333333969116211,12.161596984558106,8.07619296911621,12.161596984558106,8.07619296911621C12.161596984558106,8.07619296911621,11.990386984558105,7.666666969116211,11.990386984558105,7.666666969116211C11.990386984558105,7.666666969116211,11.546516984558105,7.666666969116211,11.546516984558105,7.666666969116211C11.546516984558105,7.666666969116211,11.546516984558105,8.333333969116211,11.546516984558105,8.333333969116211C11.546516984558105,8.333333969116211,11.546516984558105,8.333333969116211,11.546516984558105,8.333333969116211ZM11.119846984558105,8.333333969116211C11.119846984558105,8.333333969116211,11.119846984558105,7.666666969116211,11.119846984558105,7.666666969116211C11.119846984558105,7.666666969116211,10.675976984558105,7.666666969116211,10.675976984558105,7.666666969116211C10.675976984558105,7.666666969116211,10.504776984558106,8.07618996911621,10.504776984558106,8.07618996911621C10.504776984558106,8.07618996911621,11.119846984558105,8.333333969116211,11.119846984558105,8.333333969116211C11.119846984558105,8.333333969116211,11.119846984558105,8.333333969116211,11.119846984558105,8.333333969116211ZM9.726296984558106,11.666663969116211C9.726296984558106,11.666663969116211,9.111117984558106,11.409483969116211,9.111117984558106,11.409483969116211C9.111117984558106,11.409483969116211,9.106746984558105,11.42048396911621,9.106746984558105,11.42048396911621C9.106746984558105,11.42048396911621,9.726296984558106,11.666663969116211,9.726296984558106,11.666663969116211C9.726296984558106,11.666663969116211,9.726296984558106,11.666663969116211,9.726296984558106,11.666663969116211ZM13.205036984558106,12.333333969116211C13.205036984558106,12.333333969116211,13.824556984558106,12.087083969116211,13.824556984558106,12.087083969116211C13.824556984558106,12.087083969116211,13.824556984558106,12.087083969116211,13.824556984558106,12.087083969116211C13.824556984558106,12.087083969116211,13.205036984558106,12.333333969116211,13.205036984558106,12.333333969116211C13.205036984558106,12.333333969116211,13.205036984558106,12.333333969116211,13.205036984558106,12.333333969116211ZM9.461386984558105,12.333333969116211C9.461386984558105,12.333333969116211,8.841839984558105,12.087153969116212,8.841839984558105,12.087153969116212C8.841839984558105,12.087153969116212,8.841839984558105,12.087153969116212,8.841839984558105,12.087153969116212C8.841839984558105,12.087153969116212,9.461386984558105,12.333333969116211,9.461386984558105,12.333333969116211C9.461386984558105,12.333333969116211,9.461386984558105,12.333333969116211,9.461386984558105,12.333333969116211ZM13.555136984558105,11.409523969116211C13.555136984558105,11.409523969116211,12.161596984558106,8.07619296911621,12.161596984558106,8.07619296911621C12.161596984558106,8.07619296911621,10.931436984558106,8.590474969116212,10.931436984558106,8.590474969116212C10.931436984558106,8.590474969116212,12.324976984558106,11.92380396911621,12.324976984558106,11.92380396911621C12.324976984558106,11.92380396911621,13.555136984558105,11.409523969116211,13.555136984558105,11.409523969116211C13.555136984558105,11.409523969116211,13.555136984558105,11.409523969116211,13.555136984558105,11.409523969116211ZM11.546516984558105,7.666666969116211C11.546516984558105,7.666666969116211,11.119846984558105,7.666666969116211,11.119846984558105,7.666666969116211C11.119846984558105,7.666666969116211,11.119846984558105,9.000000969116211,11.119846984558105,9.000000969116211C11.119846984558105,9.000000969116211,11.546516984558105,9.000000969116211,11.546516984558105,9.000000969116211C11.546516984558105,9.000000969116211,11.546516984558105,7.666666969116211,11.546516984558105,7.666666969116211C11.546516984558105,7.666666969116211,11.546516984558105,7.666666969116211,11.546516984558105,7.666666969116211ZM10.504776984558106,8.07618996911621C10.504776984558106,8.07618996911621,9.111214984558105,11.409523969116211,9.111214984558105,11.409523969116211C9.111214984558105,11.409523969116211,10.341366984558105,11.92381396911621,10.341366984558105,11.92381396911621C10.341366984558105,11.92381396911621,11.734926984558106,8.590477969116211,11.734926984558106,8.590477969116211C11.734926984558106,8.590477969116211,10.504776984558106,8.07618996911621,10.504776984558106,8.07618996911621C10.504776984558106,8.07618996911621,10.504776984558106,8.07618996911621,10.504776984558106,8.07618996911621ZM12.320536984558105,11.912913969116211C12.320536984558105,11.912913969116211,12.585516984558105,12.57958396911621,12.585516984558105,12.57958396911621C12.585516984558105,12.57958396911621,13.824556984558106,12.087083969116211,13.824556984558106,12.087083969116211C13.824556984558106,12.087083969116211,13.559576984558106,11.42042396911621,13.559576984558106,11.42042396911621C13.559576984558106,11.42042396911621,12.320536984558105,11.912913969116211,12.320536984558105,11.912913969116211C12.320536984558105,11.912913969116211,12.320536984558105,11.912913969116211,12.320536984558105,11.912913969116211ZM12.585516984558105,12.57958396911621C12.585516984558105,12.57958396911621,13.380476984558104,14.57958396911621,13.380476984558104,14.57958396911621C13.380476984558104,14.57958396911621,14.619516984558105,14.087083969116211,14.619516984558105,14.087083969116211C14.619516984558105,14.087083969116211,13.824556984558106,12.087083969116211,13.824556984558106,12.087083969116211C13.824556984558106,12.087083969116211,12.585516984558105,12.57958396911621,12.585516984558105,12.57958396911621C12.585516984558105,12.57958396911621,12.585516984558105,12.57958396911621,12.585516984558105,12.57958396911621ZM9.106746984558105,11.42048396911621C9.106746984558105,11.42048396911621,8.841839984558105,12.087153969116212,8.841839984558105,12.087153969116212C8.841839984558105,12.087153969116212,10.080936984558106,12.57951396911621,10.080936984558106,12.57951396911621C10.080936984558106,12.57951396911621,10.345836984558105,11.912853969116211,10.345836984558105,11.912853969116211C10.345836984558105,11.912853969116211,9.106746984558105,11.42048396911621,9.106746984558105,11.42048396911621C9.106746984558105,11.42048396911621,9.106746984558105,11.42048396911621,9.106746984558105,11.42048396911621ZM8.841839984558105,12.087153969116212C8.841839984558105,12.087153969116212,8.047119984558105,14.087153969116212,8.047119984558105,14.087153969116212C8.047119984558105,14.087153969116212,9.286213984558106,14.57951396911621,9.286213984558106,14.57951396911621C9.286213984558106,14.57951396911621,10.080936984558106,12.57951396911621,10.080936984558106,12.57951396911621C10.080936984558106,12.57951396911621,8.841839984558105,12.087153969116212,8.841839984558105,12.087153969116212C8.841839984558105,12.087153969116212,8.841839984558105,12.087153969116212,8.841839984558105,12.087153969116212ZM13.205036984558106,11.666663969116211C13.205036984558106,11.666663969116211,9.461386984558105,11.666663969116211,9.461386984558105,11.666663969116211C9.461386984558105,11.666663969116211,9.461386984558105,13.00000396911621,9.461386984558105,13.00000396911621C9.461386984558105,13.00000396911621,13.205036984558106,13.00000396911621,13.205036984558106,13.00000396911621C13.205036984558106,13.00000396911621,13.205036984558106,11.666663969116211,13.205036984558106,11.666663969116211C13.205036984558106,11.666663969116211,13.205036984558106,11.666663969116211,13.205036984558106,11.666663969116211Z"/></g><g><path d="M5.012946984558106,1.7974107461395263C5.012946984558106,1.7974107461395263,5.346279984558105,3.4640767461395265,5.346279984558105,3.4640767461395265C5.346279984558105,3.4640767461395265,6.653720984558105,3.2025867461395263,6.653720984558105,3.2025867461395263C6.653720984558105,3.2025867461395263,6.320386984558105,1.5359227461395264,6.320386984558105,1.5359227461395264C6.320386984558105,1.5359227461395264,5.012946984558106,1.7974107461395263,5.012946984558106,1.7974107461395263C5.012946984558106,1.7974107461395263,5.012946984558106,1.7974107461395263,5.012946984558106,1.7974107461395263Z"/></g><g><path d="M1.6666667461395264,4.333333746139527C1.6666667461395264,4.333333746139527,10.333336746139526,4.333333746139527,10.333336746139526,4.333333746139527C10.333336746139526,4.333333746139527,10.333336746139526,2.9999997461395265,10.333336746139526,2.9999997461395265C10.333336746139526,2.9999997461395265,1.6666667461395264,2.9999997461395265,1.6666667461395264,2.9999997461395265C1.6666667461395264,2.9999997461395265,1.6666667461395264,4.333333746139527,1.6666667461395264,4.333333746139527C1.6666667461395264,4.333333746139527,1.6666667461395264,4.333333746139527,1.6666667461395264,4.333333746139527Z"/></g><g><path d="M5.870386746139527,7.724626746139526C5.870386746139527,7.724626746139526,6.321956746139526,7.234186746139526,6.321956746139526,7.234186746139526C6.321956746139526,7.234186746139526,6.321936746139526,7.234176746139527,6.321936746139526,7.234176746139527C6.321936746139526,7.234176746139527,5.870386746139527,7.724626746139526,5.870386746139527,7.724626746139526C5.870386746139527,7.724626746139526,5.870386746139527,7.724626746139526,5.870386746139527,7.724626746139526ZM3.6666667461395264,3.6666667461395264C3.0186087461395266,3.8230827461395265,3.0186457461395264,3.8232327461395266,3.0186837461395264,3.8233927461395263C3.018700746139526,3.8234597461395263,3.0187417461395265,3.8236307461395262,3.0187737461395265,3.823763746139526C3.0188387461395263,3.8240317461395263,3.0189137461395266,3.824338746139526,3.0189977461395263,3.8246867461395264C3.0191667461395264,3.825380746139526,3.019374746139526,3.8262347461395265,3.019622746139526,3.8272467461395263C3.0201187461395262,3.829269746139526,3.020772746139526,3.831922746139526,3.0215867461395263,3.8351927461395263C3.0232137461395263,3.8417307461395263,3.0254797461395264,3.8507347461395263,3.0283947461395266,3.8620887461395266C3.0342227461395264,3.884792746139526,3.0426517461395264,3.9169157461395265,3.0537627461395265,3.9575257461395266C3.0759747461395266,4.038707746139527,3.1089677461395264,4.154039746139526,3.1534047461395263,4.2960327461395265C3.2421097461395263,4.579482746139527,3.3773157461395265,4.972056746139526,3.5646927461395266,5.412936746139526C3.9336907461395265,6.281156746139526,4.529787746139526,7.396536746139526,5.418826746139526,8.215076746139527C5.418826746139526,8.215076746139527,6.321936746139526,7.234176746139527,6.321936746139526,7.234176746139527C5.636906746139527,6.603466746139526,5.131136746139527,5.689856746139526,4.791796746139527,4.891416746139527C4.625006746139526,4.498965746139526,4.504422746139526,4.148782746139526,4.425881746139527,3.8978107461395264C4.3866947461395265,3.7725927461395266,4.358198746139527,3.672797386139526,4.339828746139526,3.6056545461395264C4.330648746139526,3.5721023461395265,4.324013746139526,3.5467637461395265,4.319849746139527,3.5305467461395263C4.317768746139526,3.5224397461395265,4.316306746139526,3.5166187461395264,4.315455746139526,3.5131967461395264C4.315029746139526,3.5114857461395266,4.314756746139526,3.5103757461395264,4.314634746139526,3.5098797461395264C4.3145747461395265,3.5096317461395263,4.314551746139527,3.5095377461395265,4.314566746139526,3.509598746139526C4.314573746139526,3.5096297461395265,4.314590746139526,3.5096987461395264,4.314616746139526,3.5098077461395265C4.314630746139526,3.5098617461395265,4.314656746139526,3.5099727461395265,4.3146637461395265,3.5099997461395263C4.314692746139526,3.5101207461395263,4.314724746139526,3.5102507461395263,3.6666667461395264,3.6666667461395264C3.6666667461395264,3.6666667461395264,3.6666667461395264,3.6666667461395264,3.6666667461395264,3.6666667461395264ZM5.418816746139527,8.215066746139527C6.262216746139526,8.991616746139528,7.347016746139526,9.673506746139527,8.198106746139526,10.153226746139527C8.627946746139527,10.395506746139526,9.007046746139526,10.591126746139526,9.279306746139525,10.726486746139527C9.415566746139525,10.794236746139527,9.525416746139527,10.847056746139526,9.601886746139527,10.883246746139527C9.640126746139526,10.901356746139527,9.670046746139526,10.915306746139526,9.690776746139527,10.924906746139527C9.701136746139525,10.929706746139527,9.709216746139527,10.933426746139526,9.714876746139527,10.936016746139526C9.717716746139526,10.937316746139526,9.719946746139527,10.938336746139527,9.721566746139526,10.939076746139527C9.722376746139528,10.939446746139527,9.723026746139526,10.939746746139527,9.723526746139527,10.939966746139525C9.723776746139526,10.940086746139526,9.723996746139527,10.940186746139528,9.724166746139527,10.940256746139527C9.724246746139526,10.940296746139527,9.724356746139527,10.940346746139525,9.724396746139526,10.940366746139526C9.724486746139526,10.940406746139526,9.724566746139526,10.940446746139527,9.999996746139526,10.333336746139526C10.275436746139526,9.726226746139528,10.275496746139527,9.726256746139526,10.275546746139526,9.726276746139526C10.275546746139526,9.726276746139526,10.275596746139527,9.726296746139527,10.275596746139527,9.726296746139527C10.275616746139526,9.726306746139526,10.275596746139527,9.726296746139527,10.275536746139526,9.726276746139526C10.275416746139527,9.726216746139526,10.275146746139526,9.726096746139525,10.274716746139527,9.725896746139526C10.273866746139525,9.725516746139526,10.272416746139527,9.724846746139526,10.270366746139526,9.723906746139527C10.266266746139525,9.722026746139527,10.259786746139525,9.719056746139525,10.251056746139525,9.715006746139526C10.233586746139526,9.706916746139527,10.207056746139527,9.694546746139526,10.172346746139526,9.678116746139526C10.102906746139526,9.645246746139527,10.000806746139526,9.596166746139527,9.872886746139526,9.532566746139526C9.616786746139526,9.405246746139525,9.258616746139527,9.220436746139526,8.852806746139526,8.991696746139526C8.032606746139527,8.529386746139526,7.0525967461395265,7.906916746139526,6.321956746139526,7.234186746139526C6.321956746139526,7.234186746139526,5.418816746139527,8.215066746139527,5.418816746139527,8.215066746139527C5.418816746139527,8.215066746139527,5.418816746139527,8.215066746139527,5.418816746139527,8.215066746139527Z" /></g><g transform="matrix(-1,0,0,1,16.666667938232422,0)"><path d="M10.537053969116212,7.724626746139526C10.537053969116212,7.724626746139526,10.988623969116212,7.234186746139526,10.988623969116212,7.234186746139526C10.988623969116212,7.234186746139526,10.98860396911621,7.234176746139527,10.98860396911621,7.234176746139527C10.98860396911621,7.234176746139527,10.537053969116212,7.724626746139526,10.537053969116212,7.724626746139526C10.537053969116212,7.724626746139526,10.537053969116212,7.724626746139526,10.537053969116212,7.724626746139526ZM8.333333969116211,3.6666667461395264C7.685275969116211,3.8230827461395265,7.685312969116211,3.8232327461395266,7.685350969116211,3.8233927461395263C7.685367969116211,3.8234597461395263,7.685408969116211,3.8236307461395262,7.685440969116211,3.823763746139526C7.685505969116211,3.8240317461395263,7.685580969116211,3.824338746139526,7.68566496911621,3.8246867461395264C7.685833969116211,3.825380746139526,7.686041969116211,3.8262347461395265,7.686289969116211,3.8272467461395263C7.686785969116211,3.829269746139526,7.687439969116211,3.831922746139526,7.688253969116211,3.8351927461395263C7.689880969116211,3.8417307461395263,7.6921469691162105,3.8507347461395263,7.695061969116211,3.8620887461395266C7.700889969116211,3.884792746139526,7.709318969116211,3.9169157461395265,7.720429969116211,3.9575257461395266C7.742641969116211,4.038707746139527,7.775634969116211,4.154039746139526,7.820071969116211,4.2960327461395265C7.908776969116211,4.579482746139527,8.043982969116211,4.972056746139526,8.23135996911621,5.412936746139526C8.60035796911621,6.281156746139526,9.19645496911621,7.396536746139526,10.08549396911621,8.215076746139527C10.08549396911621,8.215076746139527,10.98860396911621,7.234176746139527,10.98860396911621,7.234176746139527C10.303573969116211,6.603466746139526,9.797803969116211,5.689856746139526,9.458463969116211,4.891416746139527C9.29167396911621,4.498965746139526,9.171089969116212,4.148782746139526,9.09254896911621,3.8978107461395264C9.05336196911621,3.7725927461395266,9.024865969116211,3.672797386139526,9.00649596911621,3.6056545461395264C8.997315969116212,3.5721023461395265,8.99068096911621,3.5467637461395265,8.986516969116211,3.5305467461395263C8.98443596911621,3.5224397461395265,8.98297396911621,3.5166187461395264,8.982122969116212,3.5131967461395264C8.98169696911621,3.5114857461395266,8.98142396911621,3.5103757461395264,8.981301969116211,3.5098797461395264C8.98124196911621,3.5096317461395263,8.981218969116211,3.5095377461395265,8.98123396911621,3.509598746139526C8.981240969116211,3.5096297461395265,8.98125796911621,3.5096987461395264,8.98128396911621,3.5098077461395265C8.981297969116211,3.5098617461395265,8.981323969116211,3.5099727461395265,8.981330969116211,3.5099997461395263C8.98135996911621,3.5101207461395263,8.981391969116212,3.5102507461395263,8.333333969116211,3.6666667461395264C8.333333969116211,3.6666667461395264,8.333333969116211,3.6666667461395264,8.333333969116211,3.6666667461395264ZM10.085483969116211,8.215066746139527C10.92888396911621,8.991616746139528,12.013683969116212,9.673506746139527,12.86477396911621,10.153226746139527C13.294613969116211,10.395506746139526,13.67371396911621,10.591126746139526,13.94597396911621,10.726486746139527C14.08223396911621,10.794236746139527,14.192083969116212,10.847056746139526,14.268553969116212,10.883246746139527C14.30679396911621,10.901356746139527,14.33671396911621,10.915306746139526,14.357443969116211,10.924906746139527C14.36780396911621,10.929706746139527,14.375883969116211,10.933426746139526,14.381543969116212,10.936016746139526C14.384383969116211,10.937316746139526,14.386613969116212,10.938336746139527,14.38823396911621,10.939076746139527C14.389043969116212,10.939446746139527,14.38969396911621,10.939746746139527,14.390193969116211,10.939966746139525C14.39044396911621,10.940086746139526,14.390663969116211,10.940186746139528,14.390833969116212,10.940256746139527C14.39091396911621,10.940296746139527,14.391023969116212,10.940346746139525,14.39106396911621,10.940366746139526C14.39115396911621,10.940406746139526,14.391233969116211,10.940446746139527,14.666663969116211,10.333336746139526C14.94210396911621,9.726226746139528,14.942163969116212,9.726256746139526,14.94221396911621,9.726276746139526C14.94221396911621,9.726276746139526,14.942263969116212,9.726296746139527,14.942263969116212,9.726296746139527C14.942283969116211,9.726306746139526,14.942263969116212,9.726296746139527,14.94220396911621,9.726276746139526C14.942083969116212,9.726216746139526,14.941813969116211,9.726096746139525,14.941383969116211,9.725896746139526C14.94053396911621,9.725516746139526,14.939083969116211,9.724846746139526,14.93703396911621,9.723906746139527C14.93293396911621,9.722026746139527,14.92645396911621,9.719056746139525,14.91772396911621,9.715006746139526C14.90025396911621,9.706916746139527,14.873723969116211,9.694546746139526,14.83901396911621,9.678116746139526C14.76957396911621,9.645246746139527,14.66747396911621,9.596166746139527,14.539553969116211,9.532566746139526C14.283453969116211,9.405246746139525,13.925283969116212,9.220436746139526,13.519473969116211,8.991696746139526C12.699273969116211,8.529386746139526,11.719263969116211,7.906916746139526,10.988623969116212,7.234186746139526C10.988623969116212,7.234186746139526,10.085483969116211,8.215066746139527,10.085483969116211,8.215066746139527C10.085483969116211,8.215066746139527,10.085483969116211,8.215066746139527,10.085483969116211,8.215066746139527Z" /></g></g></svg>