<?xml version="1.0" standalone="no"?><!DOCTYPE svg PUBLIC "-//W3C//DTD SVG 1.1//EN" "http://www.w3.org/Graphics/SVG/1.1/DTD/svg11.dtd"><svg t="1699274622778" class="icon" viewBox="0 0 1024 1024" version="1.1" xmlns="http://www.w3.org/2000/svg" p-id="1394" xmlns:xlink="http://www.w3.org/1999/xlink" width="200" height="200"><path d="M729.344 85.333333a209.322667 209.322667 0 0 0-209.365333 209.322667v118.570667c0 50.133333 40.661333 90.794667 90.794666 90.794666h118.570667a209.322667 209.322667 0 0 0 0-418.688z m-146.304 209.322667a146.304 146.304 0 1 1 146.304 146.304h-118.570667a27.733333 27.733333 0 0 1-27.733333-27.733333V294.656zM294.698667 85.333333a209.322667 209.322667 0 1 0 0 418.688h118.570666a90.794667 90.794667 0 0 0 90.794667-90.794666V294.698667A209.322667 209.322667 0 0 0 294.698667 85.333333zM148.48 294.698667a146.304 146.304 0 0 1 292.565333 0v118.528a27.733333 27.733333 0 0 1-27.733333 27.733333H294.698667A146.304 146.304 0 0 1 148.48 294.698667z m371.541333 316.074666c0-50.176 40.661333-90.794667 90.794667-90.794666h118.570667a209.322667 209.322667 0 1 1-209.365334 209.322666v-118.528z m90.794667-27.733333a27.733333 27.733333 0 0 0-27.733333 27.733333v118.528a146.304 146.304 0 1 0 146.304-146.261333h-118.570667z m-316.117333-63.061333a209.322667 209.322667 0 1 0 209.365333 209.322666v-118.528a90.794667 90.794667 0 0 0-90.794667-90.794666H294.656z m-146.261334 209.322666a146.304 146.304 0 0 1 146.261334-146.261333h118.570666c15.317333 0 27.733333 12.373333 27.733334 27.733333v118.528a146.261333 146.261333 0 1 1-292.565334 0z" fill="#000000" fill-opacity=".65" p-id="1395"></path></svg>