<svg xmlns="http://www.w3.org/2000/svg" xmlns:xlink="http://www.w3.org/1999/xlink" fill="none" version="1.1" width="16" height="16" viewBox="0 0 16 16"><g><g><path d="M3.6666685694885253,7.333299160003662C3.6666685694885253,4.940069160003662,5.606768569488525,2.999969160003662,7.999998569488525,2.999969160003662C10.393238569488526,2.999969160003662,12.333298569488525,4.940069160003662,12.333298569488525,7.333299160003662C12.333298569488525,7.333299160003662,12.333298569488525,11.666599160003662,12.333298569488525,11.666599160003662C12.333298569488525,11.666599160003662,3.6666685694885253,11.666599160003662,3.6666685694885253,11.666599160003662C3.6666685694885253,11.666599160003662,3.6666685694885253,7.333299160003662,3.6666685694885253,7.333299160003662C3.6666685694885253,7.333299160003662,3.6666685694885253,7.333299160003662,3.6666685694885253,7.333299160003662Z" fill="#4E5969" fill-opacity="1"/><path d="M2.9999985694885254,12.333299160003662L12.999998569488525,12.333299160003662L12.999998569488525,7.333299160003662Q12.999998569488525,5.2622291600036615,11.535518569488525,3.797769160003662Q10.071068569488526,2.333299160003662,7.999998569488525,2.333299160003662Q5.928938569488525,2.333299160003662,4.464468569488526,3.797769160003662Q2.9999985694885254,5.2622291600036615,2.9999985694885254,7.333299160003662L2.9999985694885254,12.333299160003662ZM11.666628569488525,10.999929160003662L11.666628569488525,7.333299160003662Q11.666628569488525,5.814509160003662,10.592708569488526,4.740579160003662Q9.518778569488525,3.6666391600036623,7.999998569488525,3.6666391600036623Q6.481218569488526,3.6666391600036623,5.4072785694885255,4.740579160003662Q4.333338569488525,5.8145191600036625,4.333338569488525,7.333299160003662L4.333338569488525,10.999929160003662L11.666628569488525,10.999929160003662Z" fill-rule="evenodd" fill="#4E5969" fill-opacity="1"/></g></g></svg>