<svg t="1699687152326" class="icon" viewBox="0 0 1024 1024" version="1.1" xmlns="http://www.w3.org/2000/svg" p-id="7505" width="200" height="200"><path d="M797.538462 699.648h-27.569231a319.744 319.744 0 0 0 61.873231-188.908308A320.157538 320.157538 0 0 0 512.059077 190.976a39.384615 39.384615 0 0 0-39.384615 39.384615 39.384615 39.384615 0 0 0 39.384615 39.384616 241.289846 241.289846 0 0 1 241.014154 240.994461 240.955077 240.955077 0 0 1-46.020923 141.469539v-44.228923a39.384615 39.384615 0 0 0-39.384616-39.384616 39.384615 39.384615 0 0 0-39.384615 39.384616v131.052307a39.384615 39.384615 0 0 0 39.384615 39.384616h129.969231a39.384615 39.384615 0 0 0 39.384615-39.384616 39.384615 39.384615 0 0 0-39.483076-39.384615z" p-id="7506"></path><path d="M512 754.235077a241.250462 241.250462 0 0 1-240.994462-240.974769 240.817231 240.817231 0 0 1 46.020924-141.371077v38.006154a39.384615 39.384615 0 0 0 39.384615 39.384615 39.384615 39.384615 0 0 0 39.384615-39.384615V278.843077a39.384615 39.384615 0 0 0-39.384615-39.384615h-129.969231a39.384615 39.384615 0 0 0-39.384615 39.384615 39.384615 39.384615 0 0 0 39.384615 39.384615h32.393846a319.369846 319.369846 0 0 0-66.619077 194.953846 320.118154 320.118154 0 0 0 319.763693 319.744 39.384615 39.384615 0 0 0 39.384615-39.384615A39.384615 39.384615 0 0 0 512 754.235077z" p-id="7507"></path></svg>