<svg xmlns="http://www.w3.org/2000/svg" xmlns:xlink="http://www.w3.org/1999/xlink" fill="none" version="1.1" width="18" height="18" viewBox="0 0 18 18"><g><g><path d="M11.21104,12.4044C10.27769,13.093,9.12387,13.5,7.875,13.5C4.7684,13.5,2.25,10.9816,2.25,7.875C2.25,4.7684,4.7684,2.25,7.875,2.25C10.9816,2.25,13.5,4.7684,13.5,7.875C13.5,9.123940000000001,13.093,10.27781,12.4043,11.21119L15.2255,14.0323C15.4451,14.2521,15.4451,14.6082,15.2255,14.8278L14.8277,15.2256C14.608,15.4452,14.2519,15.4452,14.0322,15.2256L11.21104,12.4044ZM11.8125,7.875C11.8125,10.04962,10.04962,11.8125,7.875,11.8125C5.7003699999999995,11.8125,3.9375,10.04962,3.9375,7.875C3.9375,5.7003699999999995,5.7003699999999995,3.9375,7.875,3.9375C10.04962,3.9375,11.8125,5.7003699999999995,11.8125,7.875Z" fill-rule="evenodd" fill="#4E5969" fill-opacity="1"/></g></g></svg>