<svg xmlns="http://www.w3.org/2000/svg" xmlns:xlink="http://www.w3.org/1999/xlink" fill="none" version="1.1" width="16" height="16" viewBox="0 0 16 16"><defs><clipPath id="master_svg0_0_18487"><rect x="0" y="0" width="16" height="16" rx="0"/></clipPath></defs><g clip-path="url(#master_svg0_0_18487)"><g><path d="M16,0C16,0,0,0,0,0C0,0,0,16,0,16C0,16,16,16,16,16C16,16,16,0,16,0C16,0,16,0,16,0Z" fill="#FFFFFF" fill-opacity="0.009999999776482582"/></g><g><path d="M6.094619585533142,14.390416382408143C4.977579585533142,14.057816382408141,3.983279585533142,13.440416382408142,3.195969585533142,12.622316382408142C3.489679585533142,12.274216382408142,3.666679585533142,11.824416382408142,3.666679585533142,11.333306382408143C3.666679585533142,10.228746382408142,2.771249585533142,9.333306382408143,1.6666825855331422,9.333306382408143C1.599866585533142,9.333306382408143,1.5338125855331421,9.336576382408143,1.468679585533142,9.342976382408143C1.3799462855331421,8.909176382408141,1.333349585533142,8.460006382408142,1.333349585533142,7.999976382408142C1.333349585533142,7.303106382408142,1.4402725855331422,6.631206382408142,1.6386125855331422,5.999776382408142C1.647952585533142,5.999906382408142,1.6573095855331421,5.999976382408142,1.6666825855331422,5.999976382408142C2.771249585533142,5.999976382408142,3.666679585533142,5.104546382408142,3.666679585533142,3.9999763824081422C3.666679585533142,3.6828763824081423,3.592879585533142,3.383006382408142,3.461549585533142,3.1166363824081422C4.232519585533142,2.399766382408142,5.173519585533143,1.863276382408142,6.217379585533142,1.574316382408142C6.548149585533142,2.222666382408142,7.222249585533142,2.666646382408142,8.000019585533142,2.666646382408142C8.777779585533143,2.666646382408142,9.451879585533142,2.222666382408142,9.782649585533141,1.574316382408142C10.826519585533141,1.863276382408142,11.767549585533143,2.399766382408142,12.538449585533142,3.1166363824081422C12.407149585533142,3.383006382408142,12.333349585533142,3.6828763824081423,12.333349585533142,3.9999763824081422C12.333349585533142,5.104546382408142,13.228749585533143,5.999976382408142,14.333349585533142,5.999976382408142C14.342749585533141,5.999976382408142,14.352049585533143,5.999906382408142,14.361449585533142,5.999776382408142C14.559749585533142,6.631206382408142,14.666649585533142,7.303106382408142,14.666649585533142,7.999976382408142C14.666649585533142,8.460006382408142,14.620049585533142,8.909176382408141,14.531349585533142,9.342976382408143C14.466249585533141,9.336576382408143,14.400149585533143,9.333306382408143,14.333349585533142,9.333306382408143C13.228749585533143,9.333306382408143,12.333349585533142,10.228746382408142,12.333349585533142,11.333306382408143C12.333349585533142,11.824416382408142,12.510349585533142,12.274216382408142,12.804049585533143,12.622316382408142C12.016749585533143,13.440416382408142,11.022449585533142,14.057816382408141,9.905419585533142,14.390416382408143C9.647619585533143,13.583916382408143,8.892019585533141,13.000016382408143,8.000019585533142,13.000016382408143C7.1080195855331425,13.000016382408143,6.352419585533142,13.583916382408143,6.094619585533142,14.390416382408143C6.094619585533142,14.390416382408143,6.094619585533142,14.390416382408143,6.094619585533142,14.390416382408143Z" fill="#4E5969" fill-opacity="1"/><path d="M15.184549585533142,9.476526382408142Q15.333349585533142,8.748736382408142,15.333349585533142,7.999976382408142Q15.333349585533142,6.869376382408142,14.997449585533142,5.800026382408142Q14.981549585533141,5.749156382408142,14.957649585533142,5.701466382408142Q14.933749585533143,5.653776382408142,14.902649585533142,5.610486382408142Q14.871549585533142,5.567196382408142,14.833849585533143,5.529406382408142Q14.796249585533142,5.491616382408142,14.753149585533142,5.4602863824081425Q14.709949585533142,5.428956382408142,14.662349585533143,5.404886382408142Q14.614749585533142,5.380816382408142,14.563949585533143,5.364616382408142Q14.513149585533142,5.348416382408142,14.460449585533143,5.340496382408142Q14.407749585533143,5.332586382408142,14.354349585533143,5.333146382408142L14.344949585533142,5.3332663824081425L14.333349585533142,5.333306382408142Q13.781049585533141,5.333306382408142,13.390549585533142,4.942786382408142Q13.000049585533143,4.552266382408142,13.000049585533143,3.9999763824081422Q13.000049585533143,3.688106382408142,13.136449585533143,3.411386382408142Q13.160049585533143,3.363456382408142,13.175749585533142,3.312386382408142Q13.191449585533142,3.261306382408142,13.198749585533141,3.208376382408142Q13.206149585533142,3.155456382408142,13.204949585533143,3.102036382408142Q13.203749585533142,3.048616382408142,13.194149585533141,2.996056382408142Q13.184449585533143,2.9435063824081418,13.166549585533142,2.8931663824081424Q13.148649585533143,2.842826382408142,13.122949585533142,2.795976382408142Q13.097249585533142,2.749126382408142,13.064349585533142,2.706976382408142Q13.031549585533142,2.664826382408142,12.992449585533143,2.6284363824081423Q11.679749585533141,1.407716382408142,9.960509585533142,0.9318123824081421Q9.905389585533142,0.916555382408142,9.848489585533143,0.9109083824081421Q9.791579585533142,0.9052613824081421,9.734539585533142,0.9093873824081421Q9.677509585533143,0.9135143824081421,9.622009585533142,0.9272933824081421Q9.566509585533142,0.9410733824081421,9.514159585533141,0.9641033824081421Q9.461819585533142,0.9871333824081421,9.414159585533142,1.018741382408142Q9.366509585533143,1.0503493824081422,9.324929585533141,1.0896113824081421Q9.283359585533141,1.128873382408142,9.249069585533142,1.1746433824081421Q9.214789585533142,1.220412382408142,9.188799585533143,1.2713513824081422Q8.817079585533143,1.9999793824081422,8.000019585533142,1.9999793824081422Q7.182949585533142,1.9999793824081422,6.811229585533142,1.2713513824081422Q6.785239585533142,1.220412382408142,6.750959585533142,1.174642382408142Q6.716679585533142,1.128873382408142,6.675099585533142,1.0896113824081421Q6.633519585533142,1.050348382408142,6.585859585533142,1.018741382408142Q6.538209585533142,0.9871333824081421,6.4858595855331425,0.9641023824081421Q6.433519585533142,0.9410723824081421,6.378019585533142,0.9272933824081421Q6.322519585533142,0.9135133824081421,6.265479585533142,0.9093873824081421Q6.208449585533142,0.9052613824081421,6.1515395855331425,0.9109083824081421Q6.094639585533142,0.9165563824081421,6.039519585533142,0.9318123824081421Q4.320439585533142,1.407688382408142,3.0075895855331423,2.628416382408142Q2.968449585533142,2.664806382408142,2.9356095855331423,2.706966382408142Q2.902769585533142,2.7491163824081424,2.877069585533142,2.795976382408142Q2.8513595855331424,2.842826382408142,2.833449585533142,2.8931663824081424Q2.815539585533142,2.9435163824081423,2.805879585533142,2.996076382408142Q2.796209585533142,3.048636382408142,2.795039585533142,3.102056382408142Q2.793869585533142,3.1554863824081423,2.801229585533142,3.208416382408142Q2.8085895855331424,3.261346382408142,2.824279585533142,3.312426382408142Q2.839979585533142,3.363516382408142,2.8636095855331423,3.4114463824081422Q3.0000095855331423,3.688106382408142,3.0000095855331423,3.9999763824081422Q3.0000095855331423,4.552266382408142,2.609489585533142,4.942786382408142Q2.218965585533142,5.333306382408142,1.6714385855331422,5.333326382408142L1.6433685855331421,5.3331263824081425Q1.590192585533142,5.332746382408143,1.537627585533142,5.340806382408142Q1.485063585533142,5.348856382408142,1.4344405855331421,5.365146382408142Q1.383817685533142,5.381426382408142,1.336416765533142,5.405536382408142Q1.2890158855331422,5.429636382408142,1.246035685533142,5.460956382408142Q1.2030555855331422,5.4922663824081415,1.165582585533142,5.530006382408143Q1.1281105855331421,5.5677363824081425,1.097093585533142,5.610926382408142Q1.0660765855331422,5.654126382408142,1.0422985855331421,5.701686382408142Q1.0185215855331422,5.749256382408142,1.002585585533142,5.799996382408142Q0.6666825855331421,6.869366382408142,0.6666825855331421,7.999976382408142Q0.6666825855331421,8.748856382408142,0.8155365855331421,9.476576382408142Q0.8278205855331421,9.536626382408143,0.850848585533142,9.593436382408141Q0.8738765855331421,9.650236382408142,0.9068765855331421,9.701896382408142Q0.939877585533142,9.753546382408143,0.9817435855331421,9.798316382408142Q1.023609585533142,9.843086382408142,1.072937585533142,9.879476382408143Q1.122265585533142,9.915866382408142,1.177400585533142,9.942646382408142Q1.232536585533142,9.969426382408143,1.291631685533142,9.985706382408143Q1.350726585533142,10.001986382408143,1.4117990855331422,10.007216382408142Q1.472871585533142,10.012446382408141,1.533873585533142,10.006446382408143Q1.599773585533142,9.999976382408143,1.6666825855331422,9.999976382408143Q2.218963585533142,9.999976382408143,2.609489585533142,10.390496382408141Q3.0000095855331423,10.781026382408141,3.0000095855331423,11.333306382408143Q3.0000095855331423,11.820716382408142,2.686439585533142,12.192416382408142Q2.646909585533142,12.239216382408141,2.6165895855331422,12.292516382408142Q2.586259585533142,12.345816382408142,2.566159585533142,12.403716382408142Q2.546059585533142,12.461616382408142,2.536859585533142,12.522216382408143Q2.527659585533142,12.582816382408142,2.529659585533142,12.644116382408143Q2.5316595855331423,12.705416382408142,2.5447995855331422,12.765216382408141Q2.557949585533142,12.825116382408142,2.581789585533142,12.881616382408142Q2.6056295855331424,12.938116382408142,2.6393695855331423,12.989216382408141Q2.673109585533142,13.040416382408143,2.715609585533142,13.084616382408143Q4.058159585533142,14.479616382408143,5.904369585533142,15.029316382408142Q5.966499585533142,15.047816382408142,6.031019585533142,15.054016382408141Q6.095549585533142,15.060216382408143,6.160049585533142,15.053816382408142Q6.224559585533142,15.047516382408142,6.286629585533142,15.028816382408142Q6.348709585533142,15.010116382408142,6.406019585533142,14.979916382408142Q6.463329585533142,14.949616382408141,6.513739585533142,14.908816382408142Q6.564149585533142,14.868116382408141,6.605759585533142,14.818416382408142Q6.647379585533142,14.768716382408142,6.678639585533142,14.711916382408143Q6.709899585533142,14.655116382408142,6.729629585533142,14.593416382408142Q6.860059585533142,14.185416382408143,7.206729585533142,13.928216382408142Q7.559169585533142,13.666716382408142,8.000019585533142,13.666716382408142Q8.440869585533143,13.666716382408142,8.793309585533141,13.928216382408142Q9.139979585533142,14.185416382408143,9.270409585533141,14.593416382408142Q9.290139585533142,14.655116382408142,9.321399585533143,14.711916382408143Q9.352659585533143,14.768716382408142,9.394279585533143,14.818416382408142Q9.435889585533141,14.868116382408141,9.486299585533143,14.908816382408142Q9.536709585533142,14.949616382408141,9.594019585533141,14.979916382408142Q9.651329585533142,15.010116382408142,9.713409585533142,15.028816382408142Q9.775479585533143,15.047516382408142,9.839989585533143,15.053816382408142Q9.904499585533141,15.060216382408143,9.969019585533141,15.054016382408141Q10.033539585533141,15.047816382408142,10.095669585533143,15.029316382408142Q11.941849585533141,14.479616382408143,13.284449585533142,13.084616382408143Q13.326949585533143,13.040416382408143,13.360649585533142,12.989216382408141Q13.394349585533142,12.938016382408142,13.418249585533141,12.881616382408142Q13.442049585533143,12.825116382408142,13.455249585533142,12.765216382408141Q13.468349585533142,12.705416382408142,13.470349585533143,12.644116382408143Q13.472349585533141,12.582816382408142,13.463149585533142,12.522216382408143Q13.453949585533142,12.461616382408142,13.433849585533142,12.403716382408142Q13.413749585533141,12.345816382408142,13.383449585533143,12.292516382408142Q13.353149585533142,12.239216382408141,13.313549585533142,12.192416382408142Q13.000049585533143,11.820716382408142,13.000049585533143,11.333306382408143Q13.000049585533143,10.781016382408142,13.390549585533142,10.390496382408141Q13.781049585533141,9.999976382408143,14.333349585533142,9.999976382408143Q14.400249585533142,9.999976382408143,14.466149585533142,10.006446382408143Q14.527149585533142,10.012446382408141,14.588249585533141,10.007216382408142Q14.649249585533141,10.001986382408143,14.708349585533142,9.985706382408143Q14.767449585533143,9.969426382408143,14.822649585533142,9.942646382408142Q14.877749585533142,9.915866382408142,14.927149585533142,9.879476382408143Q14.976449585533143,9.843086382408142,15.018249585533143,9.798306382408143Q15.060149585533143,9.753526382408142,15.093149585533142,9.701866382408141Q15.126149585533142,9.650206382408141,15.149149585533142,9.593396382408143Q15.172249585533143,9.536586382408142,15.184549585533142,9.476526382408142ZM13.842149585533143,6.6252863824081425Q13.999949585533143,7.297716382408142,13.999949585533143,7.999976382408142Q13.999949585533143,8.347926382408142,13.960849585533142,8.690016382408142Q13.093649585533143,8.801756382408142,12.447749585533142,9.447696382408143Q11.666649585533142,10.228736382408142,11.666649585533142,11.333306382408143Q11.666649585533142,11.979516382408143,11.942649585533141,12.524416382408143Q11.183729585533142,13.190716382408143,10.251509585533142,13.564716382408141Q9.993839585533141,13.158616382408143,9.587779585533141,12.857416382408141Q8.881479585533143,12.333316382408142,8.000019585533142,12.333316382408142Q7.118559585533142,12.333316382408142,6.412259585533142,12.857416382408141Q6.0061995855331425,13.158616382408143,5.748529585533142,13.564716382408141Q4.816309585533142,13.190716382408143,4.057409585533142,12.524416382408143Q4.333349585533142,11.979516382408143,4.333349585533142,11.333306382408143Q4.333349585533142,10.228746382408142,3.552299585533142,9.447696382408143Q2.906359585533142,8.801746382408142,2.039152585533142,8.690006382408143Q2.000016585533142,8.347956382408142,2.000016585533142,7.999976382408142Q2.000016585533142,7.297446382408142,2.1580385855331423,6.624756382408142Q2.952099585533142,6.485796382408142,3.552299585533142,5.885596382408142Q4.333349585533142,5.104546382408142,4.333349585533142,3.9999763824081422Q4.333349585533142,3.648396382408142,4.246049585533142,3.3182563824081424Q5.015279585533142,2.697406382408142,5.939439585533142,2.362183382408142Q6.211069585533142,2.6933963824081424,6.587599585533142,2.928856382408142Q7.234369585533142,3.333316382408142,8.000019585533142,3.333316382408142Q8.765659585533143,3.333316382408142,9.412429585533141,2.928856382408142Q9.788969585533142,2.6933963824081424,10.060589585533142,2.362181382408142Q10.984809585533142,2.697416382408142,11.753949585533142,3.318266382408142Q11.666649585533142,3.648416382408142,11.666649585533142,3.9999763824081422Q11.666649585533142,5.104546382408142,12.447749585533142,5.885596382408142Q13.049049585533142,6.486916382408142,13.842149585533143,6.6252863824081425Z" fill-rule="evenodd" fill="#4E5969" fill-opacity="1"/></g><g><path d="M7.9999802952575685,10.333369409484863C9.288650295257568,10.333369409484863,10.333320295257568,9.288699409484863,10.333320295257568,8.000029409484863C10.333320295257568,6.711369409484863,9.288650295257568,5.666699409484863,7.9999802952575685,5.666699409484863C6.711320295257568,5.666699409484863,5.666650295257568,6.711369409484863,5.666650295257568,8.000029409484863C5.666650295257568,9.288699409484863,6.711320295257568,10.333369409484863,7.9999802952575685,10.333369409484863C7.9999802952575685,10.333369409484863,7.9999802952575685,10.333369409484863,7.9999802952575685,10.333369409484863Z" fill="#FFFFFF" fill-opacity="1"/><path d="M10.121310295257569,10.121359409484864Q10.999990295257568,9.242669409484863,10.999990295257568,8.000029409484863Q10.999990295257568,6.757389409484864,10.12130029525757,5.878711409484863Q9.242620295257568,5.000032409484863,7.9999802952575685,5.000032409484863Q6.757340295257569,5.000032409484863,5.878663295257568,5.878712409484863Q4.999983295257568,6.757389409484864,4.999983295257568,8.000029409484863Q4.999983295257568,9.242669409484863,5.878662295257568,10.121359409484864Q6.757340295257569,11.000039409484863,7.9999802952575685,11.000039409484863Q9.242620295257568,11.000039409484863,10.121310295257569,10.121359409484864ZM9.178500295257567,6.821519409484863Q9.666650295257568,7.309679409484863,9.666650295257568,8.000029409484863Q9.666650295257568,8.690389409484863,9.178500295257567,9.178549409484862Q8.690340295257569,9.666699409484863,7.9999802952575685,9.666699409484863Q7.309630295257568,9.666699409484863,6.821470295257568,9.178549409484862Q6.333317295257569,8.690389409484863,6.333317295257569,8.000029409484863Q6.333317295257569,7.309679409484863,6.821470295257568,6.821519409484863Q7.309630295257568,6.333366409484864,7.9999802952575685,6.333366409484864Q8.690340295257569,6.333366409484864,9.178500295257567,6.821519409484863Z" fill-rule="evenodd" fill="#FFFFFF" fill-opacity="1"/></g></g></svg>