<svg xmlns="http://www.w3.org/2000/svg" xmlns:xlink="http://www.w3.org/1999/xlink" fill="none" version="1.1" width="18" height="18" viewBox="0 0 18 18"><defs><clipPath id="master_svg0_0_18460"><rect x="0" y="0" width="18" height="18" rx="0"/></clipPath></defs><g clip-path="url(#master_svg0_0_18460)"><g><ellipse cx="8.99998164176941" cy="9.000036478042603" rx="2.624999761581421" ry="2.624999761581421" fill="#4E5969" fill-opacity="1"/><ellipse cx="8.99998164176941" cy="9.000036478042603" rx="2.624999761581421" ry="2.624999761581421" fill-opacity="0" stroke-opacity="1" stroke="#4E5969" fill="none" stroke-width="1.4999998807907104"/></g><g><rect x="8.624981880187988" y="2.6249632835388184" width="0.75" height="0.75" rx="0" fill-opacity="0" stroke-opacity="1" stroke="#4E5969" fill="none" stroke-width="1.4999998807907104"/></g><g><rect x="8.624981880187988" y="14.625" width="0.75" height="0.75" rx="0" fill-opacity="0" stroke-opacity="1" stroke="#4E5969" fill="none" stroke-width="1.4999998807907104"/></g><g transform="matrix(0,1,-1,0,24.00001811981201,-6.749945640563965)"><rect x="15.374981880187988" y="8.625036239624023" width="0.75" height="0.75" rx="0" fill-opacity="0" stroke-opacity="1" stroke="#4E5969" fill="none" stroke-width="1.4999998807907104"/></g><g transform="matrix(0,1,-1,0,12.000036239624023,5.250036239624023)"><rect x="3.375" y="8.625036239624023" width="0.75" height="0.75" rx="0" fill-opacity="0" stroke-opacity="1" stroke="#4E5969" fill="none" stroke-width="1.4999998807907104"/></g><g transform="matrix(-0.7071067690849304,0.7071067690849304,-0.7071067690849304,-0.7071067690849304,32.87590782854204,12.867754126651334)"><rect x="13.772954940795898" y="13.242700576782227" width="0.75" height="0.75" rx="0" fill-opacity="0" stroke-opacity="1" stroke="#4E5969" fill="none" stroke-width="1.4999998807907104"/></g><g transform="matrix(-0.7071067690849304,0.7071067690849304,-0.7071067690849304,-0.7071067690849304,12.390527488761506,4.382275225374542)"><rect x="5.287664890289307" y="4.757299900054932" width="0.75" height="0.75" rx="0" fill-opacity="0" stroke-opacity="1" stroke="#4E5969" fill="none" stroke-width="1.4999998807907104"/></g><g transform="matrix(-0.7071067690849304,-0.7071067690849304,0.7071067690849304,-0.7071067690849304,-1.6172619361099407,26.876017784304935)"><rect x="4.757574558258057" y="13.772954940795898" width="0.75" height="0.75" rx="0" fill-opacity="0" stroke-opacity="1" stroke="#4E5969" fill="none" stroke-width="1.4999998807907104"/></g><g transform="matrix(-0.7071067690849304,-0.7071067690849304,0.7071067690849304,-0.7071067690849304,18.86800140402113,18.390821345171503)"><rect x="13.242864608764648" y="5.2877197265625" width="0.75" height="0.75" rx="0" fill-opacity="0" stroke-opacity="1" stroke="#4E5969" fill="none" stroke-width="1.4999998807907104"/></g><g><rect x="8.624981880187988" y="2.6249632835388184" width="0.75" height="0.75" rx="0" fill="#4E5969" fill-opacity="1"/></g><g><rect x="8.624981880187988" y="14.625" width="0.75" height="0.75" rx="0" fill="#4E5969" fill-opacity="1"/></g><g transform="matrix(0,1,-1,0,24.00001811981201,-6.749945640563965)"><rect x="15.374981880187988" y="8.625036239624023" width="0.75" height="0.75" rx="0" fill="#4E5969" fill-opacity="1"/></g><g transform="matrix(0,1,-1,0,12.000036239624023,5.250036239624023)"><rect x="3.375" y="8.625036239624023" width="0.75" height="0.75" rx="0" fill="#4E5969" fill-opacity="1"/></g><g transform="matrix(-0.7071067690849304,0.7071067690849304,-0.7071067690849304,-0.7071067690849304,32.87590782854204,12.867754126651334)"><rect x="13.772954940795898" y="13.242700576782227" width="0.75" height="0.75" rx="0" fill="#4E5969" fill-opacity="1"/></g><g transform="matrix(-0.7071067690849304,0.7071067690849304,-0.7071067690849304,-0.7071067690849304,12.390527488761506,4.382275225374542)"><rect x="5.287664890289307" y="4.757299900054932" width="0.75" height="0.75" rx="0" fill="#4E5969" fill-opacity="1"/></g><g transform="matrix(-0.7071067690849304,-0.7071067690849304,0.7071067690849304,-0.7071067690849304,-1.6172619361099407,26.876017784304935)"><rect x="4.757574558258057" y="13.772954940795898" width="0.75" height="0.75" rx="0" fill="#4E5969" fill-opacity="1"/></g><g transform="matrix(-0.7071067690849304,-0.7071067690849304,0.7071067690849304,-0.7071067690849304,18.86800140402113,18.390821345171503)"><rect x="13.242864608764648" y="5.2877197265625" width="0.75" height="0.75" rx="0" fill="#4E5969" fill-opacity="1"/></g></g></svg>