<svg t="1699543695960" class="icon" viewBox="0 0 1168 1024" version="1.1" xmlns="http://www.w3.org/2000/svg" p-id="2752" width="200" height="200"><path d="M1116.16 76.288c0-25.6-20.992-46.08-46.08-46.08H102.4c-25.6 0-46.08 20.48-46.08 46.08v691.2c0 25.6 20.992 46.08 46.08 46.08h276.48c25.6 0 46.08-20.48 46.08-46.08s-20.48-46.08-46.08-46.08H171.52c-12.8 0-23.04-10.24-23.04-23.04v-552.96c0-12.8 10.24-23.04 23.04-23.04h829.952c12.8 0 23.04 10.24 23.04 23.04v184.32c0 25.6 20.48 46.08 46.08 46.08s46.08-20.48 46.08-46.08l-0.512-253.44zM494.08 906.24H310.272c-25.6 0-46.08 20.48-46.08 46.08s20.992 46.08 46.08 46.08h183.808c25.6 0 46.08-20.48 46.08-46.08s-20.48-46.08-46.08-46.08z" p-id="2753"></path><path d="M1088 582.144c3.584-1.024 6.656-4.096 9.728-8.192 3.072-4.096 4.096-9.728 3.584-16.896-1.536-12.288-5.12-24.576-9.728-36.864-5.12-12.288-10.752-20.992-16.896-27.136-3.584-3.584-7.68-5.12-12.288-5.632-5.12-0.512-9.216 0.512-12.288 2.56-12.8 6.144-26.624 8.704-41.472 7.168-14.848-1.024-27.136-6.656-37.376-16.896-10.24-10.24-16.384-22.016-18.432-35.84-2.048-13.824-0.512-26.624 5.12-38.912 1.024-1.536 1.536-4.608 2.56-8.704 1.024-4.096 0-7.68-2.048-11.264-3.584-5.632-8.192-10.752-13.824-15.36s-11.776-8.704-18.944-11.264-13.824-5.12-20.48-7.168c-7.168-1.536-13.312-2.56-19.456-2.56-3.584 0-7.68 2.048-11.264 5.632-3.584 3.584-6.144 7.168-8.192 10.752-4.608 12.8-12.8 23.552-24.064 31.744-11.776 8.192-24.576 12.288-39.424 12.288-14.336 0-27.136-4.608-37.376-12.8-10.752-8.704-18.432-18.944-23.04-30.208-1.536-3.584-3.584-7.68-6.656-11.264-3.072-3.584-7.68-5.632-13.312-5.632-4.096 0-10.24 1.024-17.408 2.048-7.168 1.536-14.848 3.584-22.528 6.656-7.68 3.072-14.848 6.656-21.504 11.264-6.656 4.608-11.264 9.728-13.824 15.872-1.536 2.56-1.536 5.632-1.024 8.704 0.512 3.584 1.536 6.144 2.048 8.704 0.512 2.56 1.024 6.656 1.536 12.8 0.512 6.144 0.512 12.288 0 19.968-0.512 7.168-2.048 14.336-4.608 22.016s-6.144 13.824-11.264 18.944c-10.752 10.24-23.04 16.384-36.864 18.432-13.824 2.048-27.136 0.512-39.936-4.608-3.584-1.024-7.168-2.048-10.752-2.56-3.072-0.512-6.656 0.512-9.728 2.56-4.096 2.56-8.192 6.656-11.776 11.776-3.584 5.12-6.656 11.264-9.728 17.408-2.56 6.656-5.12 12.8-6.656 19.968-1.536 6.656-2.56 12.8-2.56 18.432 0 5.12 1.536 10.24 4.096 14.848 2.56 5.12 5.632 8.192 9.728 9.216 12.8 5.12 24.064 13.312 34.304 24.064 10.24 11.264 15.36 24.064 15.36 38.912 0 14.336-5.12 27.648-15.36 39.424s-21.504 19.968-34.304 25.088c-7.168 2.56-11.264 8.704-12.8 17.92-1.024 5.12-0.512 11.776 1.536 19.456 1.536 7.68 4.096 15.36 7.168 23.04 3.072 7.68 6.656 14.336 10.752 20.48 4.096 6.144 8.704 10.24 13.312 11.776 6.144 2.56 11.776 3.072 17.92 1.536 9.216-3.072 18.432-4.608 27.136-5.12 7.68-0.512 15.872 0.512 24.064 2.048 8.704 2.048 15.872 6.144 21.504 12.288 9.728 10.752 15.36 22.528 16.384 34.816 1.024 12.288-1.024 23.552-5.632 33.28-3.584 7.168-5.12 12.8-4.608 16.896 0 4.096 1.536 7.68 3.584 10.24 3.072 4.096 7.168 8.704 13.312 12.8 6.144 4.096 12.8 8.192 19.968 11.264s14.848 5.632 22.528 8.192c7.68 2.048 14.336 3.072 19.968 3.072 5.12 0 9.728-1.024 13.824-3.584 4.096-2.56 7.68-6.144 9.728-11.264 4.608-12.8 12.8-24.064 24.576-33.28 11.776-9.728 24.576-14.336 39.424-14.336 14.848 0 27.648 4.608 39.424 14.336 11.264 9.728 19.456 20.992 24.064 34.304h0.512c1.536 3.584 3.584 6.656 7.168 9.728 3.584 3.072 7.168 4.608 10.752 4.608 5.632 0 11.776-1.024 18.944-2.56 7.168-1.536 14.336-4.096 20.48-7.168 6.656-3.072 12.8-6.144 17.92-9.728 5.632-3.584 9.728-7.168 12.288-10.24 5.632-8.704 6.144-16.896 2.048-25.6-5.632-12.288-7.168-25.6-5.632-38.912 1.536-13.312 7.68-25.6 17.92-36.352 4.608-5.12 10.24-8.704 16.896-10.752 6.656-2.048 13.312-3.584 19.456-4.096 6.656-0.512 13.312-0.512 19.456 0.512 6.144 1.024 11.776 2.048 15.872 3.584 4.608 1.536 8.704 2.56 12.8 2.56 3.584 0 8.192-1.536 13.312-4.096s9.728-6.656 13.824-12.8c4.096-6.144 7.68-12.8 10.752-19.968 3.072-7.168 5.12-14.848 6.144-22.016 1.024-7.168 1.536-13.312 0.512-18.432-1.536-6.144-4.608-10.752-9.216-14.848-2.048-1.536-4.608-3.584-7.68-5.12-12.8-4.608-23.04-12.288-30.72-23.04s-11.776-23.552-11.776-37.888c0-14.848 4.608-28.16 14.336-40.448 10.24-11.776 21.504-19.968 34.816-24.576z m-156.672 118.272c-7.168 16.896-16.896 31.744-29.696 44.544-12.8 12.8-27.136 22.528-44.544 30.208-16.896 7.168-35.328 10.752-54.272 10.752-19.456 0-37.376-3.584-53.76-10.752-16.896-7.168-31.232-17.408-44.032-30.208-12.288-12.8-22.528-27.648-29.696-44.544-7.168-16.896-10.752-34.816-10.752-54.272s3.584-37.376 10.752-53.76c7.168-16.896 16.896-31.744 29.696-44.032 12.288-12.8 27.136-22.528 44.032-29.696 16.896-7.168 34.816-10.752 53.76-10.752s37.376 3.584 54.272 10.752c16.896 7.168 31.744 16.896 44.544 29.696 12.288 12.288 22.528 27.136 29.696 44.032 7.168 16.896 10.752 34.816 10.752 53.76 0 19.456-3.584 37.376-10.752 54.272z" p-id="2754"></path></svg>