<?xml version="1.0" standalone="no"?><!DOCTYPE svg PUBLIC "-//W3C//DTD SVG 1.1//EN" "http://www.w3.org/Graphics/SVG/1.1/DTD/svg11.dtd"><svg class="icon" width="200px" height="200.00px" viewBox="0 0 1024 1024" version="1.1" xmlns="http://www.w3.org/2000/svg"><path d="M936.1 674v116.9c0 29.3-23.8 53.1-53.1 53.1H139.7c-29.3 0-53.1-23.8-53.1-53.1V686.4L205 568.5c10.6-10.6 26-9.5 35.6 2.4l142.3 175.8c10.4 12.9 27.5 12.9 37.8-0.1l266.9-334.2c10.4-13 27.5-13 38-0.1L936.1 674z" fill="#CBCBCB" /><path d="M883 867.2H139.7c-42.1 0-76.3-34.2-76.3-76.3V676.8L188.6 552c9.8-9.7 22.3-14.7 35.5-14 13.3 0.7 25.6 7.2 34.5 18.2L401 732.1c0.3 0.4 0.6 0.7 0.8 0.8 0.2-0.2 0.5-0.4 0.8-0.8l266.9-334.2c9.4-11.7 22.9-18.5 37.1-18.5h0.1c14.2 0 27.7 6.7 37.1 18.4l215.7 268.1V791c-0.2 42-34.4 76.2-76.5 76.2zM109.8 696.1v94.8c0 16.5 13.4 29.9 29.9 29.9H883c16.5 0 29.9-13.4 29.9-29.9V682.2L707.5 426.9c-0.4-0.5-0.7-0.8-1-0.9 0 0.2-0.4 0.5-0.8 1L438.9 761c-9.3 11.7-22.8 18.5-37 18.5h-0.1c-14.1 0-27.6-6.7-37-18.3L222.6 585.5c-0.3-0.4-0.6-0.7-0.8-0.9-0.1 0.1-0.2 0.2-0.4 0.3L109.8 696.1z" fill="#7D7D7D" /><path d="M401.8 779.6c-14.1 0-27.6-6.7-37-18.3L222.6 585.5c-0.3-0.4-0.6-0.7-0.8-0.9-0.1 0.1-0.2 0.2-0.4 0.3l-158 157.4v-509c0-42.1 34.2-76.3 76.3-76.3H883c42.1 0 76.3 34.2 76.3 76.3v506.6l-251.8-313c-0.4-0.5-0.7-0.8-1-0.9 0 0.2-0.4 0.5-0.8 1L438.9 761c-9.3 11.7-22.8 18.5-37 18.5 0 0.1-0.1 0.1-0.1 0.1zM221.6 538c0.8 0 1.6 0 2.5 0.1 13.3 0.7 25.6 7.2 34.5 18.2L401 732.1c0.3 0.4 0.6 0.7 0.8 0.8 0.2-0.2 0.5-0.4 0.8-0.8l266.9-334.2c9.4-11.7 22.9-18.5 37.1-18.5h0.1c14.2 0 27.7 6.7 37.1 18.4L913 608.1V233.4c0-16.5-13.4-29.9-29.9-29.9H139.7c-16.5 0-29.9 13.4-29.9 29.9v397.1l78.8-78.5c9.1-9.1 20.8-14 33-14z" fill="#7D7D7D" /><path d="M279 352.8m-79.6 0a79.6 79.6 0 1 0 159.2 0 79.6 79.6 0 1 0-159.2 0Z" fill="#CBCBCB" /><path d="M279 455.7c-56.7 0-102.9-46.1-102.9-102.9S222.3 250 279 250s102.9 46.1 102.9 102.9S335.8 455.7 279 455.7z m0-159.3c-31.1 0-56.4 25.3-56.4 56.4s25.3 56.4 56.4 56.4 56.4-25.3 56.4-56.4-25.3-56.4-56.4-56.4z" fill="#7D7D7D" /></svg>