<svg t="1699287100032" class="icon" viewBox="0 0 1024 1024" version="1.1" xmlns="http://www.w3.org/2000/svg" p-id="1340" width="200" height="200"><path d="M985.6 51.2h-947.2a38.4 38.4 0 0 0 0 76.8h947.2a38.4 38.4 0 0 0 0-76.8z m-460.8 281.6h-486.4a38.4 38.4 0 0 0 0 76.8h486.4a38.4 38.4 0 0 0 0-76.8z m0 281.6h-486.4a38.4 38.4 0 0 0 0 76.8h486.4a38.4 38.4 0 0 0 0-76.8z m460.8 281.6h-947.2a38.4 38.4 0 0 0 0 76.8h947.2a38.4 38.4 0 0 0 0-76.8z m18.2016-406.8864l-275.5584-137.7792a25.6 25.6 0 0 0-37.0432 22.8864v275.5584a25.6 25.6 0 0 0 37.0432 22.8864l275.5584-137.7792a25.6 25.6 0 0 0 0-45.7728z" fill="#86909C" p-id="1341"></path></svg>