<?xml version="1.0" standalone="no"?><!DOCTYPE svg PUBLIC "-//W3C//DTD SVG 1.1//EN" "http://www.w3.org/Graphics/SVG/1.1/DTD/svg11.dtd"><svg class="icon" width="200px" height="200.00px" viewBox="0 0 1024 1024" version="1.1" xmlns="http://www.w3.org/2000/svg"><path d="M502.3 949.9C262 949.9 66.6 754.4 66.6 514.2S262 78.5 502.3 78.5c166.8 0 316.5 92.9 390.6 242.6 5.7 11.4 1 25.3-10.5 31-11.4 5.7-25.3 1-31-10.5-66.2-133.8-200.1-216.8-349.2-216.8-214.7 0-389.4 174.7-389.4 389.4s174.7 389.4 389.4 389.4c180.6 0 336.3-122.5 378.6-297.8 3-12.4 15.5-20 27.9-17 12.4 3 20 15.5 17 27.9-47.2 196.1-221.3 333.2-423.4 333.2z" fill="#7D7D7D" /><path d="M896.2 195.9L751.3 324.3c-0.3 0.3-0.2 0.7 0.2 0.8l183.7 61.3c0.4 0.1 0.7-0.2 0.6-0.6L897 196.2c-0.1-0.4-0.5-0.5-0.8-0.3z" fill="#CBCBCB" /><path d="M931.5 408.2c-2.8 0-5.6-0.4-8.3-1.3l-174.5-58.2c-8.9-3-15.6-10.6-17.5-19.8-1.9-9.2 1.3-18.8 8.4-25l137.7-122c7-6.2 16.9-8.3 25.9-5.3 8.9 3 15.6 10.5 17.5 19.8l36.8 180.2c1.9 9.2-1.3 18.8-8.4 25-4.9 4.3-11.2 6.6-17.6 6.6z m-135.6-92.5l109.4 36.5-23.1-113-86.3 76.5z m112-99.3c0 0.1 0 0.1 0 0z" fill="#7D7D7D" /></svg>